<svg xmlns="http://www.w3.org/2000/svg" viewBox="0 0 32 32">
  <rect width="32" height="32" rx="6" fill="#0b1120" />
  <clipPath id="flag"><rect x="5" y="7" width="22" height="18" rx="1.5" /></clipPath>
  <g clip-path="url(#flag)">
    <rect x="5" y="7" width="22" height="6" fill="#fcd34d" />
    <rect x="5" y="13" width="22" height="6" fill="#2563eb" />
    <rect x="5" y="19" width="22" height="6" fill="#dc2626" />
  </g>
  <defs>
    <polygon id="star" points="0,-1 0.225,-0.309 0.951,-0.309 0.363,0.118 0.588,0.809 0,0.382 -0.588,0.809 -0.363,0.118 -0.951,-0.309 -0.225,-0.309" />
  </defs>
  <g fill="#fff">
    <use href="#star" transform="translate(9 16.4) scale(0.82)" />
    <use href="#star" transform="translate(11 15.81) scale(0.82)" />
    <use href="#star" transform="translate(13 15.42) scale(0.82)" />
    <use href="#star" transform="translate(15 15.22) scale(0.82)" />
    <use href="#star" transform="translate(17 15.22) scale(0.82)" />
    <use href="#star" transform="translate(19 15.42) scale(0.82)" />
    <use href="#star" transform="translate(21 15.81) scale(0.82)" />
    <use href="#star" transform="translate(23 16.4) scale(0.82)" />
  </g>
</svg>
